# xmcd CD database file
#
# Track frame offsets:
#	150
#	30139
#	52864
#	72063
#	100324
#	120604
#	138178
#	168480
#	196856
#	221155
#
# Disc length: 3276 seconds
#
# Revision: 1
# Processed by: cddbd v1.5.2PL0 Copyright (c) Steve Scherf et al.
# Submitted via: CDex 1.51
#
DISCID=800cca0a
DTITLE=Osvaldo Chacon - Best of Salsa (Afro-Cubana)
DYEAR=2006
DGENRE=Salsa
TTITLE0=Mi Vicio
TTITLE1=Ando buscando
TTITLE2=Cumbia pa' Colombia
TTITLE3=Si me dejas
TTITLE4=Conmigo o con el
TTITLE5=Forever Cha-Cha
TTITLE6=Todo llega
TTITLE7=A la buena si
TTITLE8=Segundas partes
TTITLE9=Bimbon
EXTD=YEAR: 2006
EXTT0=
EXTT1=
EXTT2=
EXTT3=
EXTT4=
EXTT5=
EXTT6=
EXTT7=
EXTT8=
EXTT9=
PLAYORDER=
